<svg width="18" height="17" viewBox="0 0 18 17" fill="none" xmlns="http://www.w3.org/2000/svg">
<path d="M1.9444 9.97273V11.6636C1.9444 11.8636 2.03531 12.0455 2.16259 12.1909C2.28986 12.3182 2.47168 12.3909 2.65349 12.3909C2.83531 12.3909 3.01713 12.3182 3.16259 12.1727L5.30804 10.0273H11.7989C12.8535 10.0273 13.6899 9.17273 13.6899 8.13636V2.39091C13.6899 1.33636 12.8353 0.5 11.7989 0.5H2.3444C1.28986 0.5 0.453495 1.35455 0.453495 2.39091V8.11818C0.435313 9.02727 1.08986 9.79091 1.9444 9.97273ZM4.81713 4.60909H6.45349V2.97273H7.70804V4.60909H9.3444V5.86364H7.70804V7.5H6.45349V5.86364H4.81713V4.60909ZM17.9989 6.51818V12.2455C17.9989 13.1545 17.3444 13.9182 16.4899 14.1V15.7909C16.4899 16.1909 16.1626 16.5 15.7808 16.5C15.5989 16.5 15.4171 16.4273 15.2717 16.3L13.1262 14.1545H6.63531C5.61713 14.1545 4.79895 13.3545 4.7444 12.3727L5.83531 11.2818H6.05349V12.2636C6.05349 12.5727 6.30804 12.8455 6.63531 12.8455H13.6717L15.1626 14.3364V12.8455H16.108C16.4171 12.8455 16.6899 12.5909 16.6899 12.2636V6.51818C16.6899 6.20909 16.4353 5.93636 16.108 5.93636H14.9626V4.60909H16.108C17.1444 4.62727 17.9989 5.48182 17.9989 6.51818Z" fill="#0055AF"/>
</svg>
