<svg width="32" height="32" viewBox="0 0 32 32" fill="none" xmlns="http://www.w3.org/2000/svg">
<path d="M0.5 8C0.5 3.85786 3.85786 0.5 8 0.5H24C28.1421 0.5 31.5 3.85786 31.5 8V24C31.5 28.1421 28.1421 31.5 24 31.5H8C3.85786 31.5 0.5 28.1421 0.5 24V8Z" fill="white"/>
<path d="M0.5 8C0.5 3.85786 3.85786 0.5 8 0.5H24C28.1421 0.5 31.5 3.85786 31.5 8V24C31.5 28.1421 28.1421 31.5 24 31.5H8C3.85786 31.5 0.5 28.1421 0.5 24V8Z" stroke="url(#paint0_linear_2449_19572)"/>
<path fill-rule="evenodd" clip-rule="evenodd" d="M14.8484 9.54865C15.0099 9.54865 15.1408 9.67957 15.1408 9.84107V15.3971C15.1408 15.5586 15.0099 15.6895 14.8484 15.6895H9.29242C9.13091 15.6895 9 15.5586 9 15.3971V9.84107C9 9.67957 9.13091 9.54865 9.29242 9.54865H14.8484ZM13.898 12.6191C13.898 11.6097 13.0798 10.7914 12.0704 10.7914C11.061 10.7914 10.2428 11.6097 10.2428 12.6191C10.2428 13.6284 11.061 14.4467 12.0704 14.4467C13.0798 14.4467 13.898 13.6284 13.898 12.6191ZM22.9143 12.394C23.0285 12.5082 23.0285 12.6934 22.9143 12.8076L19.606 16.1159C19.4918 16.2301 19.3066 16.2301 19.1924 16.1159L15.8841 12.8076C15.7699 12.6934 15.7699 12.5082 15.8841 12.394L19.1924 9.08564C19.3066 8.97145 19.4918 8.97145 19.606 9.08564L22.9143 12.394ZM20.3814 13.5829C20.9238 13.0405 20.9238 12.161 20.3814 11.6186C19.8389 11.0762 18.9595 11.0762 18.417 11.6186C17.8746 12.1611 17.8746 13.0405 18.417 13.583C18.9595 14.1254 19.8389 14.1254 20.3814 13.5829ZM14.8484 16.8592C15.0099 16.8592 15.1408 16.9901 15.1408 17.1516V22.7076C15.1408 22.8691 15.0099 23 14.8484 23H9.29242C9.13091 23 9 22.8691 9 22.7076V17.1516C9 16.9901 9.13091 16.8592 9.29242 16.8592H14.8484ZM13.898 19.9296C13.898 18.9202 13.0798 18.102 12.0704 18.102C11.061 18.102 10.2428 18.9202 10.2428 19.9296C10.2428 20.939 11.061 21.7572 12.0704 21.7572C13.0798 21.7572 13.898 20.939 13.898 19.9296ZM22.1589 16.8592C22.3204 16.8592 22.4513 16.9901 22.4513 17.1516V22.7076C22.4513 22.8691 22.3204 23 22.1589 23H16.6029C16.4414 23 16.3105 22.8691 16.3105 22.7076V17.1516C16.3105 16.9901 16.4414 16.8592 16.6029 16.8592H22.1589ZM21.2086 19.9296C21.2086 18.9202 20.3903 18.102 19.3809 18.102C18.3716 18.102 17.5533 18.9202 17.5533 19.9296C17.5533 20.939 18.3716 21.7572 19.3809 21.7572C20.3903 21.7572 21.2086 20.939 21.2086 19.9296Z" fill="url(#paint1_linear_2449_19572)"/>
<defs>
<linearGradient id="paint0_linear_2449_19572" x1="2.59275" y1="3.76287" x2="10.3846" y2="32.9714" gradientUnits="userSpaceOnUse">
<stop stop-color="#1B39FF"/>
<stop offset="1" stop-color="#FF8038"/>
</linearGradient>
<linearGradient id="paint1_linear_2449_19572" x1="10.1343" y1="10.6463" x2="13.5432" y2="23.425" gradientUnits="userSpaceOnUse">
<stop stop-color="#1B39FF"/>
<stop offset="1" stop-color="#FF8038"/>
</linearGradient>
</defs>
</svg>
